<svg xmlns="http://www.w3.org/2000/svg" viewBox="0 0 32 32" width="32" height="32">
  <!-- Background circle -->
  <circle cx="16" cy="16" r="15" fill="#22c55e" stroke="#16a34a" stroke-width="2"/>
  
  <!-- Grass blades -->
  <path d="M8 22 Q8 16 10 12 Q12 8 14 12 Q16 16 14 22 Z" fill="#ffffff" opacity="0.9"/>
  <path d="M12 24 Q12 18 14 14 Q16 10 18 14 Q20 18 18 24 Z" fill="#ffffff" opacity="0.95"/>
  <path d="M16 22 Q16 16 18 12 Q20 8 22 12 Q24 16 22 22 Z" fill="#ffffff"/>
  
  <!-- Small accent leaves -->
  <ellipse cx="10" cy="20" rx="1.5" ry="3" fill="#86efac" transform="rotate(-15 10 20)"/>
  <ellipse cx="22" cy="20" rx="1.5" ry="3" fill="#86efac" transform="rotate(15 22 20)"/>
</svg>